<svg xmlns="http://www.w3.org/2000/svg" width="65" height="70" viewBox="0 0 65 70">
  <metadata><?xpacket begin="﻿" id="W5M0MpCehiHzreSzNTczkc9d"?>
<x:xmpmeta xmlns:x="adobe:ns:meta/" x:xmptk="Adobe XMP Core 5.6-c138 79.159824, 2016/09/14-01:09:01        ">
   <rdf:RDF xmlns:rdf="http://www.w3.org/1999/02/22-rdf-syntax-ns#">
      <rdf:Description rdf:about=""/>
   </rdf:RDF>
</x:xmpmeta>
                                                                                                    
                                                                                                    
                                                                                                    
                                                                                                    
                                                                                                    
                                                                                                    
                                                                                                    
                                                                                                    
                                                                                                    
                                                                                                    
                                                                                                    
                                                                                                    
                                                                                                    
                                                                                                    
                                                                                                    
                                                                                                    
                                                                                                    
                                                                                                    
                                                                                                    
                                                                                                    
                           
<?xpacket end="w"?></metadata>
<defs>
    <style>
      .cls-1 {
        fill: #fff;
        fill-rule: evenodd;
      }
    </style>
  </defs>
  <path id="building" class="cls-1" d="M1368.61,1391.5h-5.81a1.165,1.165,0,0,0,0,2.33h5.81A1.165,1.165,0,0,0,1368.61,1391.5Zm0,4.67h-5.81a1.165,1.165,0,0,0,0,2.33h5.81A1.165,1.165,0,0,0,1368.61,1396.17Zm0,4.66h-5.81a1.17,1.17,0,0,0,0,2.34h5.81A1.17,1.17,0,0,0,1368.61,1400.83Zm0,4.67h-5.81a1.165,1.165,0,0,0,0,2.33h5.81A1.165,1.165,0,0,0,1368.61,1405.5Zm0,4.67h-5.81a1.165,1.165,0,0,0,0,2.33h5.81A1.165,1.165,0,0,0,1368.61,1410.17Zm0,4.66h-5.81a1.17,1.17,0,0,0,0,2.34h5.81A1.17,1.17,0,0,0,1368.61,1414.83Zm0,4.67h-5.81a1.165,1.165,0,0,0,0,2.33h5.81A1.165,1.165,0,0,0,1368.61,1419.5Zm0,4.67h-5.81a1.165,1.165,0,0,0,0,2.33h5.81A1.165,1.165,0,0,0,1368.61,1424.17Zm52.23-37.34h-13.93v-11.66a1.163,1.163,0,0,0-1.16-1.17h-5.8v-5.83a1.163,1.163,0,0,0-1.16-1.17h-8.13v-7h-2.32v7h-8.13a1.163,1.163,0,0,0-1.16,1.17V1374h-5.8a1.163,1.163,0,0,0-1.16,1.17v11.66h-13.93A1.169,1.169,0,0,0,1357,1388v40.83a1.163,1.163,0,0,0,1.16,1.17h62.68a1.163,1.163,0,0,0,1.16-1.17V1388A1.169,1.169,0,0,0,1420.84,1386.83Zm-48.75,40.84h-12.77v-38.5h12.77v38.5Zm9.29-58.34h16.25V1374h-16.25v-4.67Zm23.21,18.67v39.67h-30.18v-51.34h30.18V1388h0Zm15.09,39.67h-12.77v-38.5h12.77v38.5Zm-3.48-35a1.161,1.161,0,0,0-1.16,1.16v30.36a1.16,1.16,0,1,0,2.32,0v-30.36A1.161,1.161,0,0,0,1416.2,1392.67Zm-5.81,0a1.161,1.161,0,0,0-1.16,1.16v30.36a1.16,1.16,0,1,0,2.32,0v-30.36A1.161,1.161,0,0,0,1410.39,1392.67ZM1386.02,1416h-8.13a1.163,1.163,0,0,0-1.16,1.17v7a1.161,1.161,0,0,0,1.16,1.16h8.13a1.161,1.161,0,0,0,1.16-1.16v-7A1.163,1.163,0,0,0,1386.02,1416Zm-1.16,7h-5.81v-4.67h5.81V1423Zm1.16-18.67h-8.13a1.169,1.169,0,0,0-1.16,1.17v7a1.169,1.169,0,0,0,1.16,1.17h8.13a1.169,1.169,0,0,0,1.16-1.17v-7A1.169,1.169,0,0,0,1386.02,1404.33Zm-1.16,7h-5.81v-4.66h5.81v4.66Zm1.16-18.66h-8.13a1.161,1.161,0,0,0-1.16,1.16v7a1.163,1.163,0,0,0,1.16,1.17h8.13a1.163,1.163,0,0,0,1.16-1.17v-7A1.161,1.161,0,0,0,1386.02,1392.67Zm-1.16,7h-5.81V1395h5.81v4.67Zm1.16-18.67h-8.13a1.163,1.163,0,0,0-1.16,1.17v7a1.161,1.161,0,0,0,1.16,1.16h8.13a1.161,1.161,0,0,0,1.16-1.16v-7A1.163,1.163,0,0,0,1386.02,1381Zm-1.16,7h-5.81v-4.67h5.81V1388Zm16.25,28h-8.13a1.163,1.163,0,0,0-1.16,1.17v7a1.161,1.161,0,0,0,1.16,1.16h8.13a1.161,1.161,0,0,0,1.16-1.16v-7A1.163,1.163,0,0,0,1401.11,1416Zm-1.16,7h-5.81v-4.67h5.81V1423Zm1.16-18.67h-8.13a1.169,1.169,0,0,0-1.16,1.17v7a1.169,1.169,0,0,0,1.16,1.17h8.13a1.169,1.169,0,0,0,1.16-1.17v-7A1.169,1.169,0,0,0,1401.11,1404.33Zm-1.16,7h-5.81v-4.66h5.81v4.66Zm1.16-18.66h-8.13a1.161,1.161,0,0,0-1.16,1.16v7a1.163,1.163,0,0,0,1.16,1.17h8.13a1.163,1.163,0,0,0,1.16-1.17v-7A1.161,1.161,0,0,0,1401.11,1392.67Zm-1.16,7h-5.81V1395h5.81v4.67Zm1.16-18.67h-8.13a1.163,1.163,0,0,0-1.16,1.17v7a1.161,1.161,0,0,0,1.16,1.16h8.13a1.161,1.161,0,0,0,1.16-1.16v-7A1.163,1.163,0,0,0,1401.11,1381Zm-1.16,7h-5.81v-4.67h5.81V1388Z" transform="translate(-1357 -1360)"/>
</svg>
