<svg xmlns="http://www.w3.org/2000/svg" width="70" height="69.97" viewBox="0 0 70 69.97">
  <metadata><?xpacket begin="﻿" id="W5M0MpCehiHzreSzNTczkc9d"?>
<x:xmpmeta xmlns:x="adobe:ns:meta/" x:xmptk="Adobe XMP Core 5.6-c138 79.159824, 2016/09/14-01:09:01        ">
   <rdf:RDF xmlns:rdf="http://www.w3.org/1999/02/22-rdf-syntax-ns#">
      <rdf:Description rdf:about=""/>
   </rdf:RDF>
</x:xmpmeta>
                                                                                                    
                                                                                                    
                                                                                                    
                                                                                                    
                                                                                                    
                                                                                                    
                                                                                                    
                                                                                                    
                                                                                                    
                                                                                                    
                                                                                                    
                                                                                                    
                                                                                                    
                                                                                                    
                                                                                                    
                                                                                                    
                                                                                                    
                                                                                                    
                                                                                                    
                                                                                                    
                           
<?xpacket end="w"?></metadata>
<defs>
    <style>
      .cls-1 {
        fill: #fff;
        fill-rule: evenodd;
      }
    </style>
  </defs>
  <path id="employer" class="cls-1" d="M997,1430H927c0.688-3.47,1.357-6.9,2.055-10.32a29.857,29.857,0,0,1,1.035-4.45,12.92,12.92,0,0,1,10.778-8.71c2.036-.33,4.064-0.7,6.093-1.07a1.41,1.41,0,0,0,.589-0.26c1.685-1.31,3.36-2.64,5.035-3.97a0.911,0.911,0,0,0,.134-0.17c-0.622-.57-1.256-1.1-1.847-1.68a18.777,18.777,0,0,1-4.279-6.48,1.127,1.127,0,0,0-.646-0.61,6.312,6.312,0,0,1-4.455-5.31,7.27,7.27,0,0,1,1.006-4.77,1.839,1.839,0,0,0,.208-0.94,21.311,21.311,0,0,1,1.014-7.99c2.863-7.72,8.326-12.28,16.47-13.16a19.182,19.182,0,0,1,20.924,16.53,29.936,29.936,0,0,1,.172,3.77,1.752,1.752,0,0,0,.437,1.19,6.938,6.938,0,0,1-.767,9.52,5.728,5.728,0,0,1-2.914,1.29,0.779,0.779,0,0,0-.544.33,19.069,19.069,0,0,1-6.352,8.38c0.17,0.15.308,0.28,0.458,0.39,1.068,0.82,2.2,1.56,3.192,2.46a7.955,7.955,0,0,0,4.5,1.9,39.092,39.092,0,0,1,6,1.15c5.2,1.6,8.234,5.24,9.285,10.6q1.149,5.85,2.309,11.71C996.94,1429.54,996.963,1429.75,997,1430Zm-20.913-47.97a3.2,3.2,0,0,0-.41-0.1,13.3,13.3,0,0,1-7.286-3.27,0.829,0.829,0,0,0-.688-0.11,65.773,65.773,0,0,1-19.3,3.46,0.479,0.479,0,0,0-.562.59c0.035,1.53-.063,3.07.086,4.58a15.877,15.877,0,0,0,9.907,13.77,9.89,9.89,0,0,0,5.927.7,14.788,14.788,0,0,0,8.788-5.44C975.977,1392.07,976.537,1387.18,976.087,1382.03Zm-30.79-2.61c1.016,0,1.934.02,2.85,0a60.894,60.894,0,0,0,20.314-3.96,0.741,0.741,0,0,1,.643.16,10.485,10.485,0,0,0,8.341,3.84c1.44,0.04,1.368.27,1.255-1.32a16.7,16.7,0,0,0-32.009-5.46A16.014,16.014,0,0,0,945.3,1379.42Zm-15.171,48.05H952.7c-2.652-3.54-5.234-7-7.948-10.62,1.068-1.03,2.1-2.03,3.176-3.06-1.032-.34-2.026-0.66-3.084-1.01,0.4-1.5.792-2.95,1.2-4.49-0.353.04-.59,0.06-0.823,0.1-1.49.25-2.978,0.53-4.469,0.78a10.544,10.544,0,0,0-8.59,8.05c-0.357,1.52-.629,3.07-0.933,4.61C930.863,1423.69,930.5,1425.56,930.126,1427.47Zm63.733,0.02c-0.025-.27-0.025-0.44-0.059-0.61-0.568-2.89-1.172-5.76-1.7-8.65a10.739,10.739,0,0,0-5.967-8.16,19.672,19.672,0,0,0-5.278-1.31c-0.93-.18-1.866-0.32-2.881-0.5,0.428,1.57.82,3.02,1.227,4.51-1.05.35-2.058,0.68-3.205,1.06,1.123,1.1,2.155,2.11,3.2,3.13-2.647,3.54-5.226,6.99-7.871,10.53h22.535Zm-38.052-24.58c2.049,8.27,4.071,16.42,6.094,24.58,0.078,0,.155-0.01.233-0.01,2.015-8.14,4.03-16.27,6.082-24.55A13.924,13.924,0,0,1,955.807,1402.91Zm-7.482,14.28a0.708,0.708,0,0,0,.061.18q3.684,4.935,7.379,9.86a0.744,0.744,0,0,0,.479.28c0.962,0.02,1.924.01,3.01,0.01-1.957-7.9-3.891-15.71-5.852-23.62a20.793,20.793,0,0,1-2.063,1.6,6.391,6.391,0,0,0-3.2,4.86c-0.093.61-.007,0.79,0.545,0.96,1.362,0.4,2.707.86,4.16,1.33C951.281,1414.22,949.793,1415.71,948.325,1417.19Zm22.28-13.17c-1.957,7.9-3.881,15.66-5.822,23.5,0.949,0,1.782-.03,2.612.01a1.127,1.127,0,0,0,1.088-.55c2.3-3.1,4.621-6.19,6.934-9.28,0.113-.15.206-0.32,0.347-0.54-1.5-1.51-2.975-2.99-4.5-4.53,1.615-.53,3.187-1.04,4.8-1.57-0.329-1.19-.634-2.32-0.956-3.44a0.765,0.765,0,0,0-.252-0.37C973.477,1406.2,972.093,1405.15,970.605,1404.02Zm7.948-14.48a3.708,3.708,0,0,0,2.129-3.6c0-1.57-.821-3.05-1.856-3.4Q978.691,1386.035,978.553,1389.54Zm-33.145-6.65c-2.156,1.69-1.536,5.47,0,6.15v-6.15Z" transform="translate(-927 -1360.03)"/>
</svg>
