<?xml version="1.0" encoding="utf-8"?>
<!-- Generator: Adobe Illustrator 21.0.0, SVG Export Plug-In . SVG Version: 6.00 Build 0)  -->
<svg version="1.1" id="IMI_Global_logo" xmlns="http://www.w3.org/2000/svg" xmlns:xlink="http://www.w3.org/1999/xlink" x="0px"
	 y="0px" viewBox="0 0 228.5 66" style="enable-background:new 0 0 228.5 66;" xml:space="preserve">
<style type="text/css">
	.st0{fill:#003660;}
	.st1{fill:#009EEB;}
	.st2{fill:#69859A;}
</style>
<path class="st0" d="M90,45.8h-8.4V18.4H90C90,18.4,90,45.8,90,45.8z"/>
<path id="Shape_1_copy" class="st0" d="M25.3,45.8h-8.4V18.4h8.4L25.3,45.8L25.3,45.8z"/>
<path class="st0" d="M43.8,19.1c2.9,5.3,5.9,10.6,8.8,15.9c0.2,0.3,0.3,0.5,0.5,0.9c1.3-2,2.3-4.2,3.1-6.4c1.3-3.6,1.9-7.4,1.6-11.2
	C57.4,10,51.5,2.9,43.3,1c-0.9-0.2-1.7-0.4-2.6-0.5c-0.9-0.1-2-0.2-2.8-0.3c4.2-0.5,8.5,0.1,12.4,1.7c7.2,3.1,11.4,8.6,12.6,16.4
	c1,6.8-0.7,13.1-3.8,19c-1.5,2.9-3.5,5.7-5.7,8.1l-0.4,0.4h-3.1L38,25.1v20.7h-7.9V18.5l10.8-0.1l1.8,0h0.8L43.8,19.1z"/>
<path class="st0" d="M64.5,18.9c0.3,4-0.1,7.9-1.3,11.7c-2.1,6.8-6,13-11.3,17.9c-4.6,4.5-10.2,8-16.3,10.1
	c-6.3,2.1-12.7,2.8-19.1,0.9C7.8,57,2.5,51.2,0.8,42.2c-0.4-2-0.3-4.4-0.5-6.5l0,0c0,0.3-0.1,0.6-0.1,0.9c-0.4,2.9-0.3,5.9,0.1,8.8
	c1.6,9,6.5,15.3,14.9,18.6c6.4,2.5,13.1,2.5,19.7,0.8c12.3-3.2,21.8-10.5,28.7-21.1c2.2-3.4,3.9-7.1,5-11l0.2-0.6l0,0.6v13.1h7.9
	V18.4H64.5L64.5,18.9L64.5,18.9z"/>
<path class="st0" d="M26.1,9.1c0,2.8-2.3,5-5.1,5c-2.8,0-5-2.3-5-5.1c0-2.8,2.3-5,5.1-5c0,0,0,0,0,0C23.9,4.1,26.1,6.3,26.1,9.1
	C26.1,9.1,26.1,9.1,26.1,9.1z"/>
<path class="st1" d="M14.2,10.7C14.2,10.7,14.2,10.8,14.2,10.7c-0.2,0.2-0.4,0.3-0.5,0.5C7,17.8,2.7,25.6,1.8,35.1
	C1.2,40.5,2.6,46,5.7,50.4c2.6,3.7,6.4,6.2,10.8,7.2c-0.2-0.1-0.4-0.2-0.6-0.3c-2.1-1.1-3.9-2.6-5.4-4.3c-4.2-5.1-5.1-11.1-4.3-17.4
	c0.9-6.2,3.5-11.9,7.5-16.7c1.1-1.3,2.3-2.6,3.4-3.9C15.7,14,14.6,12.5,14.2,10.7z"/>
<path class="st1" d="M56.7,17.1C55.1,11.2,52.3,6.1,46,3c-5.3-2.5-10.8-2.6-16.3-1.1c-1.5,0.4-2.9,0.9-4.4,1.4
	c1.5,1.1,2.5,2.6,2.8,4.4c0.2-0.1,0.4-0.2,0.7-0.3c3.4-1.4,7-2.1,10.7-2c5.4,0.2,10,2,13.6,6C54.3,12.9,55.6,15.6,56.7,17.1
	C56.7,17.2,56.7,17.1,56.7,17.1z"/>
<rect x="107" y="13" class="st0" width="1" height="40"/>
<rect id="Rectangle_1_copy_2" x="106" y="13" class="st2" width="1" height="40"/>
<g>
	<rect x="119.9" y="25.9" class="st0" width="1.7" height="13.3"/>
	<polygon class="st0" points="131.8,32.8 127.1,25.9 125.1,25.9 125.1,39.2 126.8,39.2 126.8,28.3 131.6,35 131.9,35 136.8,28.3 
		136.8,39.2 138.4,39.2 138.4,25.9 136.4,25.9 	"/>
	<rect x="141.9" y="25.9" class="st0" width="1.7" height="13.3"/>
	<path class="st0" d="M157.6,33.4h4.1v3.2c-1.1,0.9-2.4,1.3-3.6,1.3c-3.6,0-5.3-2.5-5.3-5.2c0-2.9,1.9-5.5,5.3-5.5
		c1.3,0,2.9,0.6,3.9,1.6l0.9-1.1c-1.3-1.3-3.1-2-4.9-2c-4.3,0-6.9,3.1-6.9,7c0,3.6,2.2,6.8,6.9,6.8c2.1,0,3.8-0.8,5.1-2.3v-5.3h-5.6
		V33.4z"/>
	<polygon class="st0" points="167.8,25.9 166.1,25.9 166.1,39.2 175,39.2 175,37.7 167.8,37.7 	"/>
	<path class="st0" d="M182.6,25.7c-4.2,0-6.8,3.1-6.8,6.9c0,3.5,2.2,6.9,6.8,6.9c4.6,0,6.7-3.4,6.7-6.9
		C189.4,29.1,187.1,25.7,182.6,25.7z M182.6,37.9c-3.5,0-5.1-2.6-5.1-5.3c0-2.9,1.7-5.4,5.1-5.4c3.5,0,5.1,2.7,5.1,5.4
		C187.7,35.2,186.1,37.9,182.6,37.9z"/>
	<path class="st0" d="M200.3,32.4c1.3-0.5,2-1.5,2-2.7c0-2.5-2.1-3.7-4.5-3.7H192v13.3h5.8c2.5,0,4.9-0.8,4.9-3.7
		C202.7,34.3,201.9,32.8,200.3,32.4z M193.7,27.4h4.2c1.6,0,2.8,0.8,2.8,2.2c0,1.4-1.2,2-2.8,2h-4.2V27.4z M197.8,37.7h-4.2v-4.5
		h4.2c1.4,0,3.1,0.7,3.2,2.4C201.1,37.3,199.2,37.7,197.8,37.7z"/>
	<path class="st0" d="M209.7,25.9l-6,13.3h1.8l1.3-2.9h7.6l1.3,2.9h1.8l-6-13.3H209.7z M207.5,34.8l3.2-7.2l3.2,7.2H207.5z"/>
	<polygon class="st0" points="221.3,37.7 221.3,25.9 219.6,25.9 219.6,39.2 228.5,39.2 228.5,37.7 	"/>
</g>
</svg>
