<?xml version="1.0" encoding="utf-8"?>
<!-- Generator: Adobe Illustrator 21.0.0, SVG Export Plug-In . SVG Version: 6.00 Build 0)  -->
<svg version="1.1" id="Layer_1" xmlns="http://www.w3.org/2000/svg" xmlns:xlink="http://www.w3.org/1999/xlink" x="0px" y="0px"
	 viewBox="0 0 225.1 66" style="enable-background:new 0 0 225.1 66;" xml:space="preserve">
<style type="text/css">
	.st0{fill:#F7F7F7;}
</style>
<path id="IMI_GLOBAL" class="st0" d="M90,45.8h-8.4V18.4H90V45.8z M25.3,45.8h-8.4V18.4h8.4V45.8z M43.8,19.1
	c2.9,5.3,5.9,10.6,8.8,15.9c0.2,0.3,0.3,0.6,0.5,0.9c1.3-2,2.3-4.1,3.1-6.4c1.3-3.6,1.9-7.4,1.6-11.2C57.4,10,51.5,2.9,43.3,1
	c-0.9-0.2-1.7-0.4-2.6-0.5c-0.9-0.1-2-0.2-2.8-0.3c4.2-0.5,8.5,0.1,12.4,1.7c7.2,3.1,11.4,8.6,12.6,16.4c1,6.8-0.7,13.1-3.8,19
	c-1.5,2.9-3.5,5.7-5.7,8.1l-0.4,0.4h-3.1L38,25.1v20.7h-7.9V18.5l10.8-0.1c0.6,0,1.2,0,1.8,0h0.8L43.8,19.1z M64.5,18.9
	c0.3,4-0.1,7.9-1.3,11.7c-2.1,6.8-6,13-11.3,17.9c-4.6,4.5-10.2,8-16.3,10.1c-6.3,2.1-12.7,2.8-19.1,0.9C7.8,57,2.5,51.1,0.8,42.2
	c-0.4-2-0.3-4.4-0.5-6.4l0,0c0,0.3-0.1,0.6-0.1,0.9c-0.4,2.9-0.3,5.9,0.1,8.8C1.9,54.3,6.8,60.7,15.2,64c6.4,2.5,13.1,2.5,19.7,0.8
	c12.3-3.2,21.8-10.5,28.7-21.1c2.2-3.4,3.9-7.1,5-11l0.2-0.6l0,0.6v13.1h7.9V18.4H64.5L64.5,18.9L64.5,18.9z M26.1,9.1
	c0,2.8-2.3,5.1-5.1,5c-2.8,0-5.1-2.3-5-5.1s2.3-5.1,5.1-5c0,0,0,0,0,0C23.9,4.1,26.1,6.3,26.1,9.1C26.1,9.1,26.1,9.1,26.1,9.1
	L26.1,9.1z M14.2,10.7C14.2,10.7,14.1,10.7,14.2,10.7c-0.2,0.2-0.4,0.3-0.5,0.5C7,17.8,2.6,25.6,1.8,35.1C1.2,40.5,2.6,46,5.7,50.4
	c2.6,3.7,6.4,6.2,10.8,7.2c-0.2-0.1-0.4-0.2-0.6-0.3c-2.1-1.1-3.9-2.6-5.4-4.3c-4.2-5.1-5.1-11.1-4.3-17.4
	c0.9-6.2,3.5-11.9,7.5-16.7c1.1-1.3,2.3-2.6,3.4-3.9C15.7,14,14.6,12.5,14.2,10.7L14.2,10.7z M56.7,17.1C55.1,11.1,52.3,6.1,46,3
	c-5.3-2.5-10.8-2.6-16.3-1.1c-1.5,0.4-2.9,0.9-4.4,1.4c1.5,1.1,2.5,2.6,2.8,4.4c0.2-0.1,0.4-0.2,0.7-0.2c3.4-1.4,7-2.1,10.7-2
	c5.4,0.2,10,2,13.6,6C54.3,12.9,55.6,15.6,56.7,17.1C56.7,17.2,56.7,17.1,56.7,17.1L56.7,17.1z M107,13h1v40h-1V13z M106,13h1v40h-1
	V13z M119.9,39.2h1.7V25.9h-1.7L119.9,39.2L119.9,39.2z M136.4,28.3v10.9h1.6V25.9h-2l-4.6,6.8l-4.7-6.8h-2v13.3h1.6V28.3l4.8,6.8
	h0.3L136.4,28.3z M141.2,39.2h1.7V25.9h-1.7V39.2z M161.5,27.6c-1.3-1.3-3.1-2-4.9-2c-4.3,0-6.9,3.1-6.9,7c0,3.6,2.2,6.8,6.9,6.8
	c2,0,3.8-0.8,5.1-2.3v-5.3h-5.6v1.5h4.1v3.2c-1,0.9-2.3,1.4-3.6,1.3c-2.7,0.2-5.1-1.9-5.3-4.6c0-0.2,0-0.4,0-0.6
	c0-2.9,1.9-5.5,5.3-5.5c1.5,0,2.9,0.6,3.9,1.6L161.5,27.6z M165.9,25.9h-1.7v13.3h8.9v-1.5h-7.2V25.9z M180.3,25.7
	c-3.6-0.1-6.7,2.7-6.8,6.3c0,0.2,0,0.4,0,0.6c0,3.5,2.2,6.9,6.8,6.9s6.7-3.4,6.7-6.9C187.1,29.1,184.8,25.7,180.3,25.7L180.3,25.7z
	 M185.4,32.6c0,2.6-1.6,5.3-5.1,5.3s-5.1-2.6-5.1-5.3c0-2.9,1.7-5.4,5.1-5.4C183.8,27.2,185.4,29.9,185.4,32.6L185.4,32.6z
	 M189.4,25.9v13.3h5.8c2.5,0,4.9-0.8,4.9-3.7c0-1.5-1-2.8-2.4-3.2c1.2-0.4,2-1.5,2-2.7c0-2.5-2.1-3.7-4.5-3.7H189.4z M191,27.4h4.2
	c1.6,0,2.8,0.8,2.8,2.2c0,1.4-1.2,2-2.8,2H191L191,27.4L191,27.4z M191,33.1h4.2c1.4,0,3.1,0.7,3.2,2.4c0,1.8-1.8,2.2-3.2,2.2H191
	L191,33.1L191,33.1z M206.6,25.9l-6,13.3h1.8l1.3-2.9h7.6l1.3,2.9h1.8l-6-13.3H206.6L206.6,25.9z M210.7,34.8h-6.3l3.2-7.2
	L210.7,34.8z M217.8,25.9h-1.7v13.3h8.9v-1.5h-7.2V25.9z"/>
</svg>
