<svg xmlns="http://www.w3.org/2000/svg" width="73" height="69" viewBox="0 0 73 69">
  <metadata><?xpacket begin="﻿" id="W5M0MpCehiHzreSzNTczkc9d"?>
<x:xmpmeta xmlns:x="adobe:ns:meta/" x:xmptk="Adobe XMP Core 5.6-c138 79.159824, 2016/09/14-01:09:01        ">
   <rdf:RDF xmlns:rdf="http://www.w3.org/1999/02/22-rdf-syntax-ns#">
      <rdf:Description rdf:about=""/>
   </rdf:RDF>
</x:xmpmeta>
                                                                                                    
                                                                                                    
                                                                                                    
                                                                                                    
                                                                                                    
                                                                                                    
                                                                                                    
                                                                                                    
                                                                                                    
                                                                                                    
                                                                                                    
                                                                                                    
                                                                                                    
                                                                                                    
                                                                                                    
                                                                                                    
                                                                                                    
                                                                                                    
                                                                                                    
                                                                                                    
                           
<?xpacket end="w"?></metadata>
<defs>
    <style>
      .cls-1 {
        fill: #9d9d9d;
        fill-rule: evenodd;
      }
    </style>
  </defs>
  <path id="it_financial" data-name="it &amp; financial" class="cls-1" d="M1124.16,839.53H1087v3.976h3.18v36.152h26.27V843.506h7.71V839.53Zm19.21,18.052c0.01,0,.02,0,0.03,0,4.85,0.141,7.61-1.3,8.04-5.143l1.97-17.678c0.36-3.294-2.26-5.807-4.89-6.768l-0.02-.007a11.913,11.913,0,0,0-1.79-.421,6.441,6.441,0,0,0-1.77.042,10.286,10.286,0,0,0-4.07,1.688c-3.77,2.685-9.61,3.265-17.38,1.722a3.608,3.608,0,0,0-1.41,7.077,46.634,46.634,0,0,0,9.08.971,28.4,28.4,0,0,0,6.96-.816l-0.01.249-1.26,11.267c-6.56.238-10.69,1.589-12.31,4.045-2.19,3.337-5.75,16.79-6.79,20.918a3.981,3.981,0,1,0,7.72,1.944,122,122,0,0,1,5.52-17.19C1131.94,857.412,1138.27,857.3,1143.37,857.582ZM1145.76,811a8.061,8.061,0,1,1-8.06,8.061A8.061,8.061,0,0,1,1145.76,811Zm13.17,38.763,1.07-13.879a0.289,0.289,0,0,0-.29-0.3h-4.4a0.284,0.284,0,0,0-.29.28l-1,13.89c-0.13,4.282-1.39,9.548-8.58,9.548l-7.96-.017h0a0.28,0.28,0,0,0-.2.085,0.272,0.272,0,0,0-.09.2v4.292a0.291,0.291,0,0,0,.29.291h7.22v9.865h-2.26a5.662,5.662,0,0,0-5.48,5.689,0.29,0.29,0,0,0,.29.29h2.86a0.29,0.29,0,0,0,.29-0.29,2.092,2.092,0,0,1,2.04-2.093h9.4a2.09,2.09,0,0,1,2.03,2.093,0.29,0.29,0,0,0,.29.29h2.86a0.29,0.29,0,0,0,.29-0.29,5.661,5.661,0,0,0-5.47-5.689h-2.27V863.627C1156.66,863.435,1158.31,856.41,1158.93,849.763Zm-41.72-14.471H1103.6l-4.61-16.885a0.221,0.221,0,0,0-.27-0.156l-2.46.67a0.229,0.229,0,0,0-.14.1,0.247,0.247,0,0,0-.02.169l5.17,18.923a0.213,0.213,0,0,0,.21.165h15.73a0.223,0.223,0,0,0,.22-0.223v-2.545A0.222,0.222,0,0,0,1117.21,835.292Z" transform="translate(-1087 -811)"/>
</svg>
