<svg xmlns="http://www.w3.org/2000/svg" width="17" height="15" viewBox="0 0 17 15">
  <metadata><?xpacket begin="﻿" id="W5M0MpCehiHzreSzNTczkc9d"?>
<x:xmpmeta xmlns:x="adobe:ns:meta/" x:xmptk="Adobe XMP Core 5.6-c138 79.159824, 2016/09/14-01:09:01        ">
   <rdf:RDF xmlns:rdf="http://www.w3.org/1999/02/22-rdf-syntax-ns#">
      <rdf:Description rdf:about=""/>
   </rdf:RDF>
</x:xmpmeta>
                                                                                                    
                                                                                                    
                                                                                                    
                                                                                                    
                                                                                                    
                                                                                                    
                                                                                                    
                                                                                                    
                                                                                                    
                                                                                                    
                                                                                                    
                                                                                                    
                                                                                                    
                                                                                                    
                                                                                                    
                                                                                                    
                                                                                                    
                                                                                                    
                                                                                                    
                                                                                                    
                           
<?xpacket end="w"?></metadata>
<defs>
    <style>
      .cls-1 {
        fill: #b6b6b6;
        fill-rule: evenodd;
        opacity: 0.7;
      }
    </style>
  </defs>
  <path id="job" class="cls-1" d="M817.538,669.2h1.9a1.561,1.561,0,0,1,1.462,1.378h1.064A2.7,2.7,0,0,0,819.434,668h-1.9a2.7,2.7,0,0,0-2.528,2.582h1.064A1.567,1.567,0,0,1,817.538,669.2Zm-5.524,13.785h9.7a5.291,5.291,0,0,1-.069-0.86,4.382,4.382,0,0,1,4.055-4.637,3.591,3.591,0,0,1,1.275.234v-3.888a6.247,6.247,0,0,1-.314.636,6.976,6.976,0,0,1-1.943,2.134,10.054,10.054,0,0,1-4.659,1.809v0.766a1.563,1.563,0,0,1-1.448,1.655h-0.25a1.563,1.563,0,0,1-1.448-1.655v-0.766a10.1,10.1,0,0,1-4.659-1.809,6.926,6.926,0,0,1-1.943-2.134,5.681,5.681,0,0,1-.314-0.636v6.846A2.17,2.17,0,0,0,812.014,682.989Zm0.7-7.19a10.348,10.348,0,0,0,11.549,0,5.182,5.182,0,0,0,2.284-3.733,1.935,1.935,0,0,0-1.585-.879H812.014a1.935,1.935,0,0,0-1.584.879A5.177,5.177,0,0,0,812.711,675.8Zm5.046,3.384a0.652,0.652,0,0,0,.6.691h0.251a0.652,0.652,0,0,0,.605-0.691v-0.559h-1.46v0.559h0Zm7.23,3.817A2.169,2.169,0,0,0,827,680.7V673.85a5.681,5.681,0,0,1-.314.636,6.931,6.931,0,0,1-1.941,2.134,10.083,10.083,0,0,1-4.656,1.809V683h4.9Z" transform="translate(-810 -668)"/>
</svg>
