<svg xmlns="http://www.w3.org/2000/svg" width="57" height="70" viewBox="0 0 57 70">
  <metadata><?xpacket begin="﻿" id="W5M0MpCehiHzreSzNTczkc9d"?>
<x:xmpmeta xmlns:x="adobe:ns:meta/" x:xmptk="Adobe XMP Core 5.6-c138 79.159824, 2016/09/14-01:09:01        ">
   <rdf:RDF xmlns:rdf="http://www.w3.org/1999/02/22-rdf-syntax-ns#">
      <rdf:Description rdf:about=""/>
   </rdf:RDF>
</x:xmpmeta>
                                                                                                    
                                                                                                    
                                                                                                    
                                                                                                    
                                                                                                    
                                                                                                    
                                                                                                    
                                                                                                    
                                                                                                    
                                                                                                    
                                                                                                    
                                                                                                    
                                                                                                    
                                                                                                    
                                                                                                    
                                                                                                    
                                                                                                    
                                                                                                    
                                                                                                    
                                                                                                    
                           
<?xpacket end="w"?></metadata>
<defs>
    <style>
      .cls-1 {
        fill: #fff;
        fill-rule: evenodd;
      }
    </style>
  </defs>
  <path id="job_seeker" class="cls-1" d="M548.589,1411.15a34.551,34.551,0,0,1-5.539-3.63v-3.17a17.99,17.99,0,0,0,8.161-12.37,6.124,6.124,0,0,0,4.664-5.73c0-2.27-1.636-3.86-4.275-4.27v-2.27c0.022-.68.192-9.32-5.122-14.98-2.948-3.14-6.978-4.73-11.978-4.73s-9.05,1.6-12,4.74c-5.3,5.66-5.125,14.27-5.1,14.97v2.27c-2.639.41-4.275,2-4.275,4.27a6.124,6.124,0,0,0,4.664,5.73,17.99,17.99,0,0,0,8.161,12.37v3.17a34.7,34.7,0,0,1-5.542,3.63c-14.1,4.7-14.4,13.35-14.408,13.72v3.67a1.44,1.44,0,0,0,1.425,1.46h54.15a1.44,1.44,0,0,0,1.425-1.46v-3.65C563,1424.52,562.789,1415.8,548.589,1411.15Zm3.011-26.2a1.5,1.5,0,0,1,1.425,1.3,3.25,3.25,0,0,1-1.45,2.45C551.59,1388.36,551.6,1384.95,551.6,1384.95Zm-35.625,1.3a1.5,1.5,0,0,1,1.425-1.3s0.01,3.41.025,3.75A3.25,3.25,0,0,1,515.975,1386.25Zm8.582-19.49c2.391-2.55,5.736-3.84,9.943-3.84,4.187,0,7.522,1.28,9.911,3.82,3.4,3.61,4.143,8.91,4.3,11.44a29.7,29.7,0,0,1-14.1-4.79,1.408,1.408,0,0,0-1.478-.1,1.461,1.461,0,0,0-.771,1.29c0,0.27-.4.78-1.517,1.33a20.148,20.148,0,0,1-4.781,1.43,57.432,57.432,0,0,1-5.778.78C520.444,1375.58,521.191,1370.35,524.557,1366.76Zm-4.134,23.65a22.516,22.516,0,0,1-.173-2.7v-6.66a59.341,59.341,0,0,0,6.323-.84c4.089-.8,6.7-1.95,7.889-3.48a32.242,32.242,0,0,0,14.288,4.38v6.6a22.516,22.516,0,0,1-.173,2.7c-0.72,5.35-3.525,9.67-7.7,11.84a14.32,14.32,0,0,1-12.761,0C523.948,1400.08,521.143,1395.76,520.423,1390.41ZM540.2,1405.7v1.85a10.21,10.21,0,0,1-2.81,2.06,6.322,6.322,0,0,1-5.788,0,10.209,10.209,0,0,1-2.8-2.06v-1.85A17.232,17.232,0,0,0,540.2,1405.7Zm-31.35,21.38v-2.15a8.351,8.351,0,0,1,1.619-3.94c2.632-3.76,7.4-5.94,10.93-7.1a45.131,45.131,0,0,0,5.927-3.75,13.375,13.375,0,0,0,1.924,1.47l-1.8,5.53a1.522,1.522,0,0,0,0,.93l2.937,9.01H508.85Zm24.54,0-3.088-9.48,1.556-4.77a8.925,8.925,0,0,0,5.284,0l1.556,4.77-3.088,9.48h-2.22Zm26.76,0H538.615l2.937-9.01a1.508,1.508,0,0,0,0-.93l-1.8-5.53a13.263,13.263,0,0,0,1.924-1.47,44.91,44.91,0,0,0,5.933,3.75c6.44,2.09,9.511,5,10.954,7.08a8.226,8.226,0,0,1,1.589,3.94v2.17Zm-16.388-6.56h9.975v2.92h-9.975v-2.92Z" transform="translate(-506 -1360)"/>
</svg>
