<svg xmlns="http://www.w3.org/2000/svg" width="81" height="69" viewBox="0 0 81 69">
  <metadata><?xpacket begin="﻿" id="W5M0MpCehiHzreSzNTczkc9d"?>
<x:xmpmeta xmlns:x="adobe:ns:meta/" x:xmptk="Adobe XMP Core 5.6-c138 79.159824, 2016/09/14-01:09:01        ">
   <rdf:RDF xmlns:rdf="http://www.w3.org/1999/02/22-rdf-syntax-ns#">
      <rdf:Description rdf:about=""/>
   </rdf:RDF>
</x:xmpmeta>
                                                                                                    
                                                                                                    
                                                                                                    
                                                                                                    
                                                                                                    
                                                                                                    
                                                                                                    
                                                                                                    
                                                                                                    
                                                                                                    
                                                                                                    
                                                                                                    
                                                                                                    
                                                                                                    
                                                                                                    
                                                                                                    
                                                                                                    
                                                                                                    
                                                                                                    
                                                                                                    
                           
<?xpacket end="w"?></metadata>
<defs>
    <style>
      .cls-1 {
        fill: #9d9d9d;
        fill-rule: evenodd;
      }
    </style>
  </defs>
  <path id="Material_Handling" data-name="Material Handling" class="cls-1" d="M516.875,873.857a6.062,6.062,0,1,0,6.061-6.135A6.1,6.1,0,0,0,516.875,873.857Zm3.01,0a3.052,3.052,0,1,1,3.051,3.089A3.07,3.07,0,0,1,519.885,873.857Zm-71.9-4.632,4,4.429h6.53a2.85,2.85,0,1,0,5.7,0h50.933v-6.936h2.8V857.54h-2.8v-34.3c0.238-.026.5-0.062,0.758-0.107a4.332,4.332,0,0,0,3.039-1.559l4.444-4.7a0.72,0.72,0,0,0,.11-0.148c0.136-.236,1.3-2.364.515-4.055a3.072,3.072,0,0,0-2.485-1.655,0.663,0.663,0,0,0-.126-0.011H506.266a0.766,0.766,0,0,0-.126.011,3.068,3.068,0,0,0-2.484,1.655c-0.787,1.691.379,3.819,0.515,4.055a0.72,0.72,0,0,0,.11.148l3.409,3.608a4.846,4.846,0,0,0,2.751,2.653c0.375,0.066.735,0.109,1.047,0.137v13.89h-4.072v32.069H447.989Zm65.849-47.97c-1.338.037-3.116-.369-3.478-1.007a0.642,0.642,0,0,0-.1-0.137l-3.871-4.1a3.1,3.1,0,0,1-.367-2.258,1.446,1.446,0,0,1,1.145-.689h13.342a1.449,1.449,0,0,1,1.144.689,3.112,3.112,0,0,1-.367,2.258l-3.94,4.17a0.707,0.707,0,0,0-.1.136C516.887,820.955,515,821.255,513.838,821.255Zm-45.149,26.409v4.181c-0.423-.348-0.779-0.625-1.117-0.925a0.308,0.308,0,0,0-.478-0.01c-0.348.3-.715,0.573-1.15,0.918v-4.171h-0.511c-1.746,0-3.49,0-5.235,0a2.419,2.419,0,0,0-2.487,2.483q-0.015,6.537,0,13.07a2.4,2.4,0,0,0,2.447,2.477q7.144,0.014,14.288,0a2.4,2.4,0,0,0,2.447-2.432q0.023-6.6,0-13.2a2.332,2.332,0,0,0-2.223-2.377C472.7,847.622,470.728,847.664,468.689,847.664Zm11-20.857V831a11.614,11.614,0,0,1-.952-0.793,0.512,0.512,0,0,0-.852,0c-0.278.26-.6,0.477-0.977,0.773v-4.179h-1.028c-1.545,0-3.089,0-4.633,0a2.436,2.436,0,0,0-2.55,2.593q0,6.449,0,12.9a2.44,2.44,0,0,0,2.518,2.544q7.014,0,14.029,0a2.451,2.451,0,0,0,2.644-2.675q0-6.338,0-12.677a2.452,2.452,0,0,0-2.639-2.68h-5.559Zm10.969,20.85v4.183c-0.421-.347-0.779-0.624-1.117-0.924a0.308,0.308,0,0,0-.478,0c-0.349.3-.716,0.571-1.148,0.914v-4.141c-0.179-.012-0.3-0.03-0.426-0.03-1.731,0-3.462,0-5.192,0a2.448,2.448,0,0,0-2.614,2.662q0,6.341,0,12.679a2.454,2.454,0,0,0,2.67,2.693h13.9a2.446,2.446,0,0,0,2.618-2.655q0-6.342,0-12.682a2.455,2.455,0,0,0-2.665-2.7c-1.7,0-3.4,0-5.106,0h-0.446Z" transform="translate(-448 -811)"/>
</svg>
