<svg xmlns="http://www.w3.org/2000/svg" width="16" height="16" viewBox="0 0 16 16">
  <metadata><?xpacket begin="﻿" id="W5M0MpCehiHzreSzNTczkc9d"?>
<x:xmpmeta xmlns:x="adobe:ns:meta/" x:xmptk="Adobe XMP Core 5.6-c138 79.159824, 2016/09/14-01:09:01        ">
   <rdf:RDF xmlns:rdf="http://www.w3.org/1999/02/22-rdf-syntax-ns#">
      <rdf:Description rdf:about=""/>
   </rdf:RDF>
</x:xmpmeta>
                                                                                                    
                                                                                                    
                                                                                                    
                                                                                                    
                                                                                                    
                                                                                                    
                                                                                                    
                                                                                                    
                                                                                                    
                                                                                                    
                                                                                                    
                                                                                                    
                                                                                                    
                                                                                                    
                                                                                                    
                                                                                                    
                                                                                                    
                                                                                                    
                                                                                                    
                                                                                                    
                           
<?xpacket end="w"?></metadata>
<defs>
    <style>
      .cls-1 {
        fill: #b6b6b6;
        fill-opacity: 0.7;
        fill-rule: evenodd;
      }
    </style>
  </defs>
  <path id="office" class="cls-1" d="M626,683v-9h-7v-6h-7v15h-1v1h16v-1h-1Zm-13-14h2v2h-2v-2Zm0,3h2v2h-2v-2Zm0,3h2v2h-2v-2Zm0,3h2v2h-2v-2Zm4,5h-3v-2h3v2Zm1-3h-2v-2h2v2Zm0-3h-2v-2h2v2Zm0-3h-2v-2h2v2Zm0-3h-2v-2h2v2Zm2,4h2v2h-2v-2Zm0,3h2v2h-2v-2Zm4,5h-3v-2h3v2Zm1-3h-2v-2h2v2Zm0-3h-2v-2h2v2Z" transform="translate(-611 -668)"/>
</svg>
