<svg xmlns="http://www.w3.org/2000/svg" width="23.03" height="23" viewBox="0 0 23.03 23">
  <metadata><?xpacket begin="﻿" id="W5M0MpCehiHzreSzNTczkc9d"?>
<x:xmpmeta xmlns:x="adobe:ns:meta/" x:xmptk="Adobe XMP Core 5.6-c138 79.159824, 2016/09/14-01:09:01        ">
   <rdf:RDF xmlns:rdf="http://www.w3.org/1999/02/22-rdf-syntax-ns#">
      <rdf:Description rdf:about=""/>
   </rdf:RDF>
</x:xmpmeta>
                                                                                                    
                                                                                                    
                                                                                                    
                                                                                                    
                                                                                                    
                                                                                                    
                                                                                                    
                                                                                                    
                                                                                                    
                                                                                                    
                                                                                                    
                                                                                                    
                                                                                                    
                                                                                                    
                                                                                                    
                                                                                                    
                                                                                                    
                                                                                                    
                                                                                                    
                                                                                                    
                           
<?xpacket end="w"?></metadata>
<defs>
    <style>
      .cls-1 {
        fill: #003660;
        fill-rule: evenodd;
      }
    </style>
  </defs>
  <path id="phone" class="cls-1" d="M1468.5,46.273l0.84-.844,0.91-.907a0.817,0.817,0,0,0,0-1.157l-4.14-4.144a0.815,0.815,0,0,0-1.15.009c-0.69.687-1.37,1.375-2.06,2.061l5.32,5.318A2.012,2.012,0,0,1,1468.5,46.273Zm4.09,9c-0.87-.749-1.7-1.544-2.51-2.355s-1.6-1.646-2.35-2.52a2.608,2.608,0,0,1-.42-2.6l-5.46-5.457c-1.26,1.305-1.1,4.542.29,7.386a20.62,20.62,0,0,0,2.17,3.4,30.722,30.722,0,0,0,2.6,2.969,29.412,29.412,0,0,0,2.96,2.609,20.255,20.255,0,0,0,3.4,2.169c2.84,1.39,6.08,1.542,7.39.272l-5.46-5.458A2.641,2.641,0,0,1,1472.59,55.275Zm11.18,1.61-4.14-4.143a0.815,0.815,0,0,0-1.15,0h-0.01l-0.91.908-0.84.844a2.223,2.223,0,0,1-.33.28l5.31,5.319c0.69-.689,1.38-1.374,2.06-2.059A0.812,0.812,0,0,0,1483.77,56.885Z" transform="translate(-1460.97 -39)"/>
</svg>
