<svg xmlns="http://www.w3.org/2000/svg" width="50" height="69" viewBox="0 0 50 69">
  <metadata><?xpacket begin="﻿" id="W5M0MpCehiHzreSzNTczkc9d"?>
<x:xmpmeta xmlns:x="adobe:ns:meta/" x:xmptk="Adobe XMP Core 5.6-c138 79.159824, 2016/09/14-01:09:01        ">
   <rdf:RDF xmlns:rdf="http://www.w3.org/1999/02/22-rdf-syntax-ns#">
      <rdf:Description rdf:about=""/>
   </rdf:RDF>
</x:xmpmeta>
                                                                                                    
                                                                                                    
                                                                                                    
                                                                                                    
                                                                                                    
                                                                                                    
                                                                                                    
                                                                                                    
                                                                                                    
                                                                                                    
                                                                                                    
                                                                                                    
                                                                                                    
                                                                                                    
                                                                                                    
                                                                                                    
                                                                                                    
                                                                                                    
                                                                                                    
                                                                                                    
                           
<?xpacket end="w"?></metadata>
<defs>
    <style>
      .cls-1 {
        fill: #9d9d9d;
        fill-rule: evenodd;
      }
    </style>
  </defs>
  <path id="professional_service" class="cls-1" d="M811.1,849.494q10.429,0,20.857,0a3.833,3.833,0,0,1,3.963,4.8q-1.686,9.649-3.336,19.3a9.724,9.724,0,0,1-.338,1.678,3.774,3.774,0,0,1-3.741,2.455c-4.161.015-8.323,0.008-12.484,0.008q-10.914,0-21.829,0c-3.076,0-4.242-1.048-4.738-4.073-0.679-4.132-1.417-8.254-2.131-12.38-0.42-2.431-.855-4.86-1.261-7.294a3.8,3.8,0,0,1,3.957-4.491c6.454-.016,12.908,0,19.362,0H811.1v0Zm-1.737,13.777a1.656,1.656,0,0,0,3.311.024A1.656,1.656,0,1,0,809.36,863.271Zm12.6-40.4a21.367,21.367,0,0,1-3.053,10.3,14.69,14.69,0,0,1-2.3,2.737,7.966,7.966,0,0,1-11.365-.148,16.545,16.545,0,0,1-4.687-9.48,15.319,15.319,0,0,1,.19-7.619,10.889,10.889,0,0,1,11.211-7.638c4.572,0.288,8.748,4.14,9.664,8.954C821.8,820.929,821.847,821.905,821.956,822.868Zm-13.011,25.509H789.561c0.89-6.13,6.7-11.3,12.615-11.561C803.74,841.049,806.5,844.569,808.945,848.377Zm4.132,0.014c1.277-1.939,2.523-3.766,3.7-5.637a24.056,24.056,0,0,0,3.011-5.9c5.333,0.008,11.753,4.971,12.671,11.535H813.077Zm-2.049,30.014H829.71a1.277,1.277,0,0,1,.657.041,1.254,1.254,0,0,1,.574.738,1.193,1.193,0,0,1-.564.742,1.45,1.45,0,0,1-.731.054q-18.57,0-37.139,0c-1.085,0-1.525-.235-1.455-0.827,0.109-.917.841-0.75,1.445-0.751Q801.763,878.4,811.028,878.405Zm-3.293-38.534a8.546,8.546,0,0,0,6.563,0,2.9,2.9,0,0,1-1.281,2.349,1.045,1.045,0,0,0-.464,1.123c0.143,1.657.248,3.318,0.372,5.036h-3.812c0.118-1.677.213-3.312,0.358-4.942a1.165,1.165,0,0,0-.5-1.251A2.869,2.869,0,0,1,807.735,839.871Z" transform="translate(-786 -811)"/>
</svg>
